<?xml version="1.0" encoding="UTF-8" standalone="no"?>
<!DOCTYPE svg PUBLIC "-//W3C//DTD SVG 1.1//EN" "http://www.w3.org/Graphics/SVG/1.1/DTD/svg11.dtd">
<svg xmlns="http://www.w3.org/2000/svg" version="1.1" viewBox="0.00 0.00 64.00 64.00">
<g stroke-width="2.00" fill="none" stroke-linecap="butt">
<path stroke="#2e6b5a" vector-effect="non-scaling-stroke" d="
  M 32.9660 3.6939
  A 0.71 0.71 0.0 0 0 32.2548 2.9851
  L 3.7348 3.0349
  A 0.71 0.71 0.0 0 0 3.0261 3.7461
  L 3.0340 8.2861
  A 0.71 0.71 0.0 0 0 3.7452 8.9949
  L 32.2652 8.9451
  A 0.71 0.71 0.0 0 0 32.9739 8.2339
  L 32.9660 3.6939"
/>
<path stroke="#767678" vector-effect="non-scaling-stroke" d="
  M 32.98 11.98
  A 0.95 0.95 0.0 0 0 32.03 11.03
  L 3.99 11.03
  A 0.95 0.95 0.0 0 0 3.04 11.98
  L 3.04 24.04
  A 0.95 0.95 0.0 0 0 3.99 24.99
  L 32.03 24.99
  A 0.95 0.95 0.0 0 0 32.98 24.04
  L 32.98 11.98"
/>
<path stroke="#806415" vector-effect="non-scaling-stroke" d="
  M 51.45 38.27
  C 53.42 34.51 55.99 37.47 58.12 35.54
  A 0.99 0.99 0.0 0 0 58.39 34.50
  Q 57.21 30.97 60.40 29.39
  A 1.56 1.56 0.0 0 0 60.39 26.58
  Q 57.32 25.11 58.34 21.76
  A 1.67 1.67 0.0 0 0 56.26 19.67
  Q 52.92 20.68 51.40 17.63
  A 1.63 1.63 0.0 0 0 48.40 17.83
  C 47.08 21.64 43.25 18.35 41.82 20.68
  Q 41.53 21.15 41.68 21.68
  Q 42.64 24.97 39.73 26.51
  A 1.69 1.68 45.1 0 0 39.73 29.48
  Q 42.62 31.04 41.66 34.22
  A 1.66 1.66 0.0 0 0 43.72 36.30
  Q 47.00 35.33 48.52 38.26
  A 1.65 1.65 0.0 0 0 51.45 38.27"
/>
<path stroke="#767678" vector-effect="non-scaling-stroke" d="
  M 39.7327 21.7747
  A 0.66 0.66 0.0 0 0 39.0796 21.1079
  L 35.6798 21.0722
  A 0.66 0.66 0.0 0 0 35.0130 21.7253
  L 35.0073 22.2653
  A 0.66 0.66 0.0 0 0 35.6604 22.9321
  L 39.0602 22.9678
  A 0.66 0.66 0.0 0 0 39.7270 22.3147
  L 39.7327 21.7747"
/>
<path stroke="#356b7a" vector-effect="non-scaling-stroke" d="
  M 33.79 26.33
  A 1.69 1.69 0.0 0 1 32.47 26.99
  L 13.48 27.05
  A 0.47 0.47 0.0 0 0 13.01 27.52
  L 13.00 46.26
  A 0.75 0.75 0.0 0 0 13.76 47.01
  L 48.53 46.92
  A 0.46 0.45 -0.0 0 0 48.99 46.47
  L 49.00 41.78
  A 1.13 1.12 15.8 0 0 48.46 40.82
  Q 47.12 40.00 46.37 38.62
  A 0.96 0.96 0.0 0 0 45.52 38.11
  C 42.60 38.12 40.43 38.63 39.60 35.07
  A 0.68 0.46 52.7 0 1 39.59 34.88
  L 39.88 32.60
  Q 39.96 31.96 39.40 31.65
  Q 35.65 29.53 37.58 25.67
  Q 37.82 25.20 37.29 25.08
  Q 35.08 24.61 33.79 26.33"
/>
<path stroke="#66696d" vector-effect="non-scaling-stroke" d="
  M 11.85 48.55
  Q 11.00 48.03 11.00 47.04
  L 10.97 27.91
  Q 10.97 27.09 10.16 27.13
  L 9.76 27.14
  A 0.72 0.72 0.0 0 0 9.07 27.86
  L 8.99 52.00
  A 3.01 3.00 0.1 0 0 12.00 55.01
  L 28.98 54.99
  Q 29.77 54.99 29.24 54.40
  Q 26.88 51.76 29.43 49.50
  Q 29.94 49.05 29.26 49.04
  Q 21.87 48.92 14.51 49.17
  Q 12.96 49.22 11.85 48.55"
/>
<path stroke="#66696d" vector-effect="non-scaling-stroke" d="
  M 32.99 54.06
  L 32.55 54.30
  A 0.35 0.35 0.0 0 0 32.72 54.96
  L 50.25 55.02
  A 2.76 2.75 -0.2 0 0 53.01 52.25
  L 52.94 40.68
  Q 52.94 39.51 52.06 40.29
  L 51.48 40.82
  A 1.34 1.34 0.0 0 0 51.04 41.79
  L 51.00 47.03
  A 2.03 2.03 0.0 0 1 48.97 49.04
  L 33.46 49.07
  Q 32.25 49.07 33.07 49.97
  Q 34.55 51.61 33.39 53.66
  A 1.11 1.01 -2.6 0 1 32.99 54.06"
/>
<path stroke="#804137" vector-effect="non-scaling-stroke" d="
  M 32.02 52.01
  A 1.01 1.01 0.0 0 0 31.01 51.00
  A 1.01 1.01 0.0 0 0 30.00 52.01
  A 1.01 1.01 0.0 0 0 31.01 53.02
  A 1.01 1.01 0.0 0 0 32.02 52.01"
/>
<path stroke="#55595f" vector-effect="non-scaling-stroke" d="
  M 35.98 58.09
  A 1.06 1.06 0.0 0 0 34.92 57.03
  L 27.04 57.03
  A 1.06 1.06 0.0 0 0 25.98 58.09
  L 25.98 59.87
  A 1.06 1.06 0.0 0 0 27.04 60.93
  L 34.92 60.93
  A 1.06 1.06 0.0 0 0 35.98 59.87
  L 35.98 58.09"
/>
<path stroke="#2e6b5a" vector-effect="non-scaling-stroke" d="
  M 5.49 4.99
  A 0.99 0.99 0.0 0 0 5.26 6.95
  Q 6.10 7.14 6.86 6.84
  A 0.96 0.96 0.0 0 0 6.50 4.99
  L 5.49 4.99"
/>
<path stroke="#2e6b5a" vector-effect="non-scaling-stroke" d="
  M 11.1228 5.8078
  A 1.20 1.05 -9.7 0 0 9.7631 4.9750
  A 1.20 1.05 -9.7 0 0 8.7572 6.2122
  A 1.20 1.05 -9.7 0 0 10.1169 7.0450
  A 1.20 1.05 -9.7 0 0 11.1228 5.8078"
/>
<path stroke="#2e6b5a" vector-effect="non-scaling-stroke" d="
  M 15.0109 5.7423
  A 1.14 0.95 -10.5 0 0 13.7169 5.0159
  A 1.14 0.95 -10.5 0 0 12.7691 6.1577
  A 1.14 0.95 -10.5 0 0 14.0631 6.8841
  A 1.14 0.95 -10.5 0 0 15.0109 5.7423"
/>
<path stroke="#767678" vector-effect="non-scaling-stroke" d="
  M 9.4198 13.9221
  A 0.91 0.91 0.0 0 0 8.5066 13.0153
  L 5.7866 13.0248
  A 0.91 0.91 0.0 0 0 4.8798 13.9379
  L 4.8802 14.0579
  A 0.91 0.91 0.0 0 0 5.7934 14.9647
  L 8.5134 14.9552
  A 0.91 0.91 0.0 0 0 9.4202 14.0421
  L 9.4198 13.9221"
/>
<path stroke="#767678" vector-effect="non-scaling-stroke" d="
  M 21.30 13.96
  A 0.92 0.92 0.0 0 0 20.38 13.04
  L 11.58 13.04
  A 0.92 0.92 0.0 0 0 10.66 13.96
  L 10.66 14.04
  A 0.92 0.92 0.0 0 0 11.58 14.96
  L 20.38 14.96
  A 0.92 0.92 0.0 0 0 21.30 14.04
  L 21.30 13.96"
/>
<path stroke="#767678" vector-effect="non-scaling-stroke" d="
  M 30.9884 13.4620
  A 0.49 0.49 0.0 0 0 30.4950 12.9754
  L 23.4152 13.0248
  A 0.49 0.49 0.0 0 0 22.9286 13.5182
  L 22.9916 22.5380
  A 0.49 0.49 0.0 0 0 23.4850 23.0246
  L 30.5648 22.9752
  A 0.49 0.49 0.0 0 0 31.0514 22.4818
  L 30.9884 13.4620"
/>
<path stroke="#767678" vector-effect="non-scaling-stroke" d="
  M 21.19 17.72
  A 0.71 0.71 0.0 0 0 20.48 17.01
  L 5.70 17.01
  A 0.71 0.71 0.0 0 0 4.99 17.72
  L 4.99 18.30
  A 0.71 0.71 0.0 0 0 5.70 19.01
  L 20.48 19.01
  A 0.71 0.71 0.0 0 0 21.19 18.30
  L 21.19 17.72"
/>
<path stroke="#767678" vector-effect="non-scaling-stroke" d="
  M 11.2209 21.7609
  A 0.72 0.72 0.0 0 0 10.5034 21.0384
  L 5.7034 21.0216
  A 0.72 0.72 0.0 0 0 4.9809 21.7391
  L 4.9791 22.2391
  A 0.72 0.72 0.0 0 0 5.6966 22.9616
  L 10.4966 22.9784
  A 0.72 0.72 0.0 0 0 11.2191 22.2609
  L 11.2209 21.7609"
/>
<path stroke="#767678" vector-effect="non-scaling-stroke" d="
  M 15.2500 21.9811
  A 1.27 1.00 -0.4 0 0 13.9730 20.9900
  A 1.27 1.00 -0.4 0 0 12.7100 21.9989
  A 1.27 1.00 -0.4 0 0 13.9870 22.9900
  A 1.27 1.00 -0.4 0 0 15.2500 21.9811"
/>
<path stroke="#767678" vector-effect="non-scaling-stroke" d="
  M 21.2493 21.8683
  A 0.87 0.87 0.0 0 0 20.3748 21.0029
  L 17.6548 21.0171
  A 0.87 0.87 0.0 0 0 16.7894 21.8917
  L 16.7907 22.1317
  A 0.87 0.87 0.0 0 0 17.6652 22.9971
  L 20.3852 22.9829
  A 0.87 0.87 0.0 0 0 21.2506 22.1083
  L 21.2493 21.8683"
/>
<path stroke="#804137" vector-effect="non-scaling-stroke" d="
  M 28.9715 15.8927
  A 0.92 0.92 0.0 0 0 28.0435 14.9808
  L 25.9036 14.9995
  A 0.92 0.92 0.0 0 0 24.9917 15.9274
  L 25.0285 20.1473
  A 0.92 0.92 0.0 0 0 25.9565 21.0592
  L 28.0964 21.0405
  A 0.92 0.92 0.0 0 0 29.0083 20.1126
  L 28.9715 15.8927"
/>
<path stroke="#806415" vector-effect="non-scaling-stroke" d="
  M 56.97 28.00
  A 6.98 6.98 0.0 0 0 49.99 21.02
  A 6.98 6.98 0.0 0 0 43.01 28.00
  A 6.98 6.98 0.0 0 0 49.99 34.98
  A 6.98 6.98 0.0 0 0 56.97 28.00"
/>
<path stroke="#7e6c38" vector-effect="non-scaling-stroke" d="
  M 54.97 28.00
  A 4.98 4.98 0.0 0 0 49.99 23.02
  A 4.98 4.98 0.0 0 0 45.01 28.00
  A 4.98 4.98 0.0 0 0 49.99 32.98
  A 4.98 4.98 0.0 0 0 54.97 28.00"
/>
<path stroke="#7e6c38" vector-effect="non-scaling-stroke" d="
  M 52.96 28.00
  A 2.96 2.96 0.0 0 0 50.00 25.04
  A 2.96 2.96 0.0 0 0 47.04 28.00
  A 2.96 2.96 0.0 0 0 50.00 30.96
  A 2.96 2.96 0.0 0 0 52.96 28.00"
/>
<path stroke="#356b7a" vector-effect="non-scaling-stroke" d="
  M 35.04 29.53
  A 0.53 0.53 0.0 0 0 34.51 29.00
  L 15.51 29.00
  A 0.53 0.53 0.0 0 0 14.98 29.53
  L 14.98 30.47
  A 0.53 0.53 0.0 0 0 15.51 31.00
  L 34.51 31.00
  A 0.53 0.53 0.0 0 0 35.04 30.47
  L 35.04 29.53"
/>
<path stroke="#356b7a" vector-effect="non-scaling-stroke" d="
  M 35.00 33.49
  A 0.49 0.49 0.0 0 0 34.51 33.00
  L 15.45 33.00
  A 0.49 0.49 0.0 0 0 14.96 33.49
  L 14.96 34.51
  A 0.49 0.49 0.0 0 0 15.45 35.00
  L 34.51 35.00
  A 0.49 0.49 0.0 0 0 35.00 34.51
  L 35.00 33.49"
/>
<path stroke="#356b7a" vector-effect="non-scaling-stroke" d="
  M 17.32 40.73
  A 0.42 0.42 0.0 0 1 17.32 41.33
  L 14.48 44.13
  A 0.42 0.42 0.0 0 0 14.49 44.73
  L 15.27 45.49
  A 0.42 0.42 0.0 0 0 15.85 45.49
  L 20.25 41.34
  A 0.42 0.42 0.0 0 0 20.26 40.73
  L 15.86 36.45
  A 0.42 0.42 0.0 0 0 15.26 36.47
  L 14.48 37.31
  A 0.42 0.42 0.0 0 0 14.49 37.89
  L 17.32 40.73"
/>
<path stroke="#356b7a" vector-effect="non-scaling-stroke" d="
  M 28.9703 43.9142
  A 0.79 0.79 0.0 0 0 28.1831 43.1214
  L 21.6431 43.0986
  A 0.79 0.79 0.0 0 0 20.8503 43.8858
  L 20.8497 44.0658
  A 0.79 0.79 0.0 0 0 21.6369 44.8586
  L 28.1769 44.8814
  A 0.79 0.79 0.0 0 0 28.9697 44.0942
  L 28.9703 43.9142"
/>
</g>
<path fill="#000000" d="
  M 35.50 19.00
  L 40.21 19.00
  Q 40.66 19.00 40.97 18.67
  Q 42.56 17.05 44.65 17.84
  Q 45.65 18.22 46.24 17.34
  C 48.68 13.75 51.77 14.32 53.83 17.66
  Q 54.09 18.09 54.59 17.99
  L 56.44 17.61
  Q 56.94 17.51 57.42 17.69
  Q 61.28 19.15 60.05 23.21
  Q 59.86 23.84 60.41 24.21
  L 62.08 25.33
  A 0.77 0.74 -88.9 0 1 62.32 25.59
  Q 63.75 27.98 62.34 30.38
  A 1.87 1.80 -83.7 0 1 61.39 31.17
  Q 59.38 31.91 60.33 33.95
  Q 60.56 34.44 60.42 34.96
  Q 59.43 38.79 55.55 38.27
  Q 55.00 38.19 55.00 38.74
  L 55.00 52.00
  A 5.00 5.00 0.0 0 1 50.00 57.00
  L 39.23 57.00
  Q 37.97 57.00 37.98 58.27
  L 37.99 59.58
  Q 38.00 60.66 39.07 60.80
  L 43.00 61.31
  Q 45.65 61.66 43.11 62.77
  Q 42.80 62.90 41.25 62.94
  Q 30.12 63.16 18.92 62.90
  Q 18.12 62.88 17.99 62.09
  L 17.93 61.70
  A 0.42 0.42 0.0 0 1 18.31 61.22
  L 22.79 60.88
  Q 24.08 60.79 24.05 59.50
  L 24.02 58.20
  Q 24.00 57.02 22.82 57.01
  Q 19.03 56.97 14.97 57.01
  C 9.90 57.06 6.98 56.45 7.00 50.75
  Q 7.02 39.19 6.99 27.62
  Q 6.99 27.12 6.49 27.07
  C 3.26 26.71 1.03 27.39 1.02 23.01
  Q 0.99 13.97 1.09 4.36
  Q 1.13 1.00 4.49 1.00
  L 32.00 1.00
  A 3.00 3.00 0.0 0 1 35.00 4.00
  L 35.00 18.50
  Q 35.00 19.00 35.50 19.00
  Z
  M 32.9660 3.6939
  A 0.71 0.71 0.0 0 0 32.2548 2.9851
  L 3.7348 3.0349
  A 0.71 0.71 0.0 0 0 3.0261 3.7461
  L 3.0340 8.2861
  A 0.71 0.71 0.0 0 0 3.7452 8.9949
  L 32.2652 8.9451
  A 0.71 0.71 0.0 0 0 32.9739 8.2339
  L 32.9660 3.6939
  Z
  M 32.98 11.98
  A 0.95 0.95 0.0 0 0 32.03 11.03
  L 3.99 11.03
  A 0.95 0.95 0.0 0 0 3.04 11.98
  L 3.04 24.04
  A 0.95 0.95 0.0 0 0 3.99 24.99
  L 32.03 24.99
  A 0.95 0.95 0.0 0 0 32.98 24.04
  L 32.98 11.98
  Z
  M 51.45 38.27
  C 53.42 34.51 55.99 37.47 58.12 35.54
  A 0.99 0.99 0.0 0 0 58.39 34.50
  Q 57.21 30.97 60.40 29.39
  A 1.56 1.56 0.0 0 0 60.39 26.58
  Q 57.32 25.11 58.34 21.76
  A 1.67 1.67 0.0 0 0 56.26 19.67
  Q 52.92 20.68 51.40 17.63
  A 1.63 1.63 0.0 0 0 48.40 17.83
  C 47.08 21.64 43.25 18.35 41.82 20.68
  Q 41.53 21.15 41.68 21.68
  Q 42.64 24.97 39.73 26.51
  A 1.69 1.68 45.1 0 0 39.73 29.48
  Q 42.62 31.04 41.66 34.22
  A 1.66 1.66 0.0 0 0 43.72 36.30
  Q 47.00 35.33 48.52 38.26
  A 1.65 1.65 0.0 0 0 51.45 38.27
  Z
  M 39.7327 21.7747
  A 0.66 0.66 0.0 0 0 39.0796 21.1079
  L 35.6798 21.0722
  A 0.66 0.66 0.0 0 0 35.0130 21.7253
  L 35.0073 22.2653
  A 0.66 0.66 0.0 0 0 35.6604 22.9321
  L 39.0602 22.9678
  A 0.66 0.66 0.0 0 0 39.7270 22.3147
  L 39.7327 21.7747
  Z
  M 33.79 26.33
  A 1.69 1.69 0.0 0 1 32.47 26.99
  L 13.48 27.05
  A 0.47 0.47 0.0 0 0 13.01 27.52
  L 13.00 46.26
  A 0.75 0.75 0.0 0 0 13.76 47.01
  L 48.53 46.92
  A 0.46 0.45 -0.0 0 0 48.99 46.47
  L 49.00 41.78
  A 1.13 1.12 15.8 0 0 48.46 40.82
  Q 47.12 40.00 46.37 38.62
  A 0.96 0.96 0.0 0 0 45.52 38.11
  C 42.60 38.12 40.43 38.63 39.60 35.07
  A 0.68 0.46 52.7 0 1 39.59 34.88
  L 39.88 32.60
  Q 39.96 31.96 39.40 31.65
  Q 35.65 29.53 37.58 25.67
  Q 37.82 25.20 37.29 25.08
  Q 35.08 24.61 33.79 26.33
  Z
  M 11.85 48.55
  Q 11.00 48.03 11.00 47.04
  L 10.97 27.91
  Q 10.97 27.09 10.16 27.13
  L 9.76 27.14
  A 0.72 0.72 0.0 0 0 9.07 27.86
  L 8.99 52.00
  A 3.01 3.00 0.1 0 0 12.00 55.01
  L 28.98 54.99
  Q 29.77 54.99 29.24 54.40
  Q 26.88 51.76 29.43 49.50
  Q 29.94 49.05 29.26 49.04
  Q 21.87 48.92 14.51 49.17
  Q 12.96 49.22 11.85 48.55
  Z
  M 32.99 54.06
  L 32.55 54.30
  A 0.35 0.35 0.0 0 0 32.72 54.96
  L 50.25 55.02
  A 2.76 2.75 -0.2 0 0 53.01 52.25
  L 52.94 40.68
  Q 52.94 39.51 52.06 40.29
  L 51.48 40.82
  A 1.34 1.34 0.0 0 0 51.04 41.79
  L 51.00 47.03
  A 2.03 2.03 0.0 0 1 48.97 49.04
  L 33.46 49.07
  Q 32.25 49.07 33.07 49.97
  Q 34.55 51.61 33.39 53.66
  A 1.11 1.01 -2.6 0 1 32.99 54.06
  Z
  M 32.02 52.01
  A 1.01 1.01 0.0 0 0 31.01 51.00
  A 1.01 1.01 0.0 0 0 30.00 52.01
  A 1.01 1.01 0.0 0 0 31.01 53.02
  A 1.01 1.01 0.0 0 0 32.02 52.01
  Z
  M 35.98 58.09
  A 1.06 1.06 0.0 0 0 34.92 57.03
  L 27.04 57.03
  A 1.06 1.06 0.0 0 0 25.98 58.09
  L 25.98 59.87
  A 1.06 1.06 0.0 0 0 27.04 60.93
  L 34.92 60.93
  A 1.06 1.06 0.0 0 0 35.98 59.87
  L 35.98 58.09
  Z"
/>
<path fill="#5cd6b3" d="
  M 32.9739 8.2339
  A 0.71 0.71 0.0 0 1 32.2652 8.9451
  L 3.7452 8.9949
  A 0.71 0.71 0.0 0 1 3.0340 8.2861
  L 3.0261 3.7461
  A 0.71 0.71 0.0 0 1 3.7348 3.0349
  L 32.2548 2.9851
  A 0.71 0.71 0.0 0 1 32.9660 3.6939
  L 32.9739 8.2339
  Z
  M 5.49 4.99
  A 0.99 0.99 0.0 0 0 5.26 6.95
  Q 6.10 7.14 6.86 6.84
  A 0.96 0.96 0.0 0 0 6.50 4.99
  L 5.49 4.99
  Z
  M 11.1228 5.8078
  A 1.20 1.05 -9.7 0 0 9.7631 4.9750
  A 1.20 1.05 -9.7 0 0 8.7572 6.2122
  A 1.20 1.05 -9.7 0 0 10.1169 7.0450
  A 1.20 1.05 -9.7 0 0 11.1228 5.8078
  Z
  M 15.0109 5.7423
  A 1.14 0.95 -10.5 0 0 13.7169 5.0159
  A 1.14 0.95 -10.5 0 0 12.7691 6.1577
  A 1.14 0.95 -10.5 0 0 14.0631 6.8841
  A 1.14 0.95 -10.5 0 0 15.0109 5.7423
  Z"
/>
<path fill="#000000" d="
  M 5.49 4.99
  L 6.50 4.99
  A 0.96 0.96 0.0 0 1 6.86 6.84
  Q 6.10 7.14 5.26 6.95
  A 0.99 0.99 0.0 0 1 5.49 4.99
  Z"
/>
<ellipse fill="#000000" cx="0.00" cy="0.00" transform="translate(9.94,6.01) rotate(-9.7)" rx="1.20" ry="1.05"/>
<ellipse fill="#000000" cx="0.00" cy="0.00" transform="translate(13.89,5.95) rotate(-10.5)" rx="1.14" ry="0.95"/>
<path fill="#ebebef" d="
  M 32.98 24.04
  A 0.95 0.95 0.0 0 1 32.03 24.99
  L 3.99 24.99
  A 0.95 0.95 0.0 0 1 3.04 24.04
  L 3.04 11.98
  A 0.95 0.95 0.0 0 1 3.99 11.03
  L 32.03 11.03
  A 0.95 0.95 0.0 0 1 32.98 11.98
  L 32.98 24.04
  Z
  M 9.4198 13.9221
  A 0.91 0.91 0.0 0 0 8.5066 13.0153
  L 5.7866 13.0248
  A 0.91 0.91 0.0 0 0 4.8798 13.9379
  L 4.8802 14.0579
  A 0.91 0.91 0.0 0 0 5.7934 14.9647
  L 8.5134 14.9552
  A 0.91 0.91 0.0 0 0 9.4202 14.0421
  L 9.4198 13.9221
  Z
  M 21.30 13.96
  A 0.92 0.92 0.0 0 0 20.38 13.04
  L 11.58 13.04
  A 0.92 0.92 0.0 0 0 10.66 13.96
  L 10.66 14.04
  A 0.92 0.92 0.0 0 0 11.58 14.96
  L 20.38 14.96
  A 0.92 0.92 0.0 0 0 21.30 14.04
  L 21.30 13.96
  Z
  M 30.9884 13.4620
  A 0.49 0.49 0.0 0 0 30.4950 12.9754
  L 23.4152 13.0248
  A 0.49 0.49 0.0 0 0 22.9286 13.5182
  L 22.9916 22.5380
  A 0.49 0.49 0.0 0 0 23.4850 23.0246
  L 30.5648 22.9752
  A 0.49 0.49 0.0 0 0 31.0514 22.4818
  L 30.9884 13.4620
  Z
  M 21.19 17.72
  A 0.71 0.71 0.0 0 0 20.48 17.01
  L 5.70 17.01
  A 0.71 0.71 0.0 0 0 4.99 17.72
  L 4.99 18.30
  A 0.71 0.71 0.0 0 0 5.70 19.01
  L 20.48 19.01
  A 0.71 0.71 0.0 0 0 21.19 18.30
  L 21.19 17.72
  Z
  M 11.2209 21.7609
  A 0.72 0.72 0.0 0 0 10.5034 21.0384
  L 5.7034 21.0216
  A 0.72 0.72 0.0 0 0 4.9809 21.7391
  L 4.9791 22.2391
  A 0.72 0.72 0.0 0 0 5.6966 22.9616
  L 10.4966 22.9784
  A 0.72 0.72 0.0 0 0 11.2191 22.2609
  L 11.2209 21.7609
  Z
  M 15.2500 21.9811
  A 1.27 1.00 -0.4 0 0 13.9730 20.9900
  A 1.27 1.00 -0.4 0 0 12.7100 21.9989
  A 1.27 1.00 -0.4 0 0 13.9870 22.9900
  A 1.27 1.00 -0.4 0 0 15.2500 21.9811
  Z
  M 21.2493 21.8683
  A 0.87 0.87 0.0 0 0 20.3748 21.0029
  L 17.6548 21.0171
  A 0.87 0.87 0.0 0 0 16.7894 21.8917
  L 16.7907 22.1317
  A 0.87 0.87 0.0 0 0 17.6652 22.9971
  L 20.3852 22.9829
  A 0.87 0.87 0.0 0 0 21.2506 22.1083
  L 21.2493 21.8683
  Z"
/>
<rect fill="#000000" x="-2.27" y="-0.97" transform="translate(7.15,13.99) rotate(-0.2)" width="4.54" height="1.94" rx="0.91"/>
<rect fill="#000000" x="10.66" y="13.04" width="10.64" height="1.92" rx="0.92"/>
<path fill="#000000" d="
  M 31.0514 22.4818
  A 0.49 0.49 0.0 0 1 30.5648 22.9752
  L 23.4850 23.0246
  A 0.49 0.49 0.0 0 1 22.9916 22.5380
  L 22.9286 13.5182
  A 0.49 0.49 0.0 0 1 23.4152 13.0248
  L 30.4950 12.9754
  A 0.49 0.49 0.0 0 1 30.9884 13.4620
  L 31.0514 22.4818
  Z
  M 28.9715 15.8927
  A 0.92 0.92 0.0 0 0 28.0435 14.9808
  L 25.9036 14.9995
  A 0.92 0.92 0.0 0 0 24.9917 15.9274
  L 25.0285 20.1473
  A 0.92 0.92 0.0 0 0 25.9565 21.0592
  L 28.0964 21.0405
  A 0.92 0.92 0.0 0 0 29.0083 20.1126
  L 28.9715 15.8927
  Z"
/>
<rect fill="#ff826e" x="-1.99" y="-3.03" transform="translate(27.00,18.02) rotate(-0.5)" width="3.98" height="6.06" rx="0.92"/>
<rect fill="#000000" x="4.99" y="17.01" width="16.20" height="2.00" rx="0.71"/>
<path fill="#ffc729" d="
  M 58.12 35.54
  C 55.99 37.47 53.42 34.51 51.45 38.27
  A 1.65 1.65 0.0 0 1 48.52 38.26
  Q 47.00 35.33 43.72 36.30
  A 1.66 1.66 0.0 0 1 41.66 34.22
  Q 42.62 31.04 39.73 29.48
  A 1.69 1.68 45.1 0 1 39.73 26.51
  Q 42.64 24.97 41.68 21.68
  Q 41.53 21.15 41.82 20.68
  C 43.25 18.35 47.08 21.64 48.40 17.83
  A 1.63 1.63 0.0 0 1 51.40 17.63
  Q 52.92 20.68 56.26 19.67
  A 1.67 1.67 0.0 0 1 58.34 21.76
  Q 57.32 25.11 60.39 26.58
  A 1.56 1.56 0.0 0 1 60.40 29.39
  Q 57.21 30.97 58.39 34.50
  A 0.99 0.99 0.0 0 1 58.12 35.54
  Z
  M 56.97 28.00
  A 6.98 6.98 0.0 0 0 49.99 21.02
  A 6.98 6.98 0.0 0 0 43.01 28.00
  A 6.98 6.98 0.0 0 0 49.99 34.98
  A 6.98 6.98 0.0 0 0 56.97 28.00
  Z"
/>
<rect fill="#000000" x="-3.12" y="-0.97" transform="translate(8.10,22.00) rotate(0.2)" width="6.24" height="1.94" rx="0.72"/>
<ellipse fill="#000000" cx="0.00" cy="0.00" transform="translate(13.98,21.99) rotate(-0.4)" rx="1.27" ry="1.00"/>
<rect fill="#000000" x="-2.23" y="-0.99" transform="translate(19.02,22.00) rotate(-0.3)" width="4.46" height="1.98" rx="0.87"/>
<rect fill="#ebebef" x="-2.36" y="-0.93" transform="translate(37.37,22.02) rotate(0.6)" width="4.72" height="1.86" rx="0.66"/>
<path fill="#000000" d="
  M 56.97 28.00
  A 6.98 6.98 0.0 0 1 49.99 34.98
  A 6.98 6.98 0.0 0 1 43.01 28.00
  A 6.98 6.98 0.0 0 1 49.99 21.02
  A 6.98 6.98 0.0 0 1 56.97 28.00
  Z
  M 54.97 28.00
  A 4.98 4.98 0.0 0 0 49.99 23.02
  A 4.98 4.98 0.0 0 0 45.01 28.00
  A 4.98 4.98 0.0 0 0 49.99 32.98
  A 4.98 4.98 0.0 0 0 54.97 28.00
  Z"
/>
<path fill="#fcd76f" d="
  M 54.97 28.00
  A 4.98 4.98 0.0 0 1 49.99 32.98
  A 4.98 4.98 0.0 0 1 45.01 28.00
  A 4.98 4.98 0.0 0 1 49.99 23.02
  A 4.98 4.98 0.0 0 1 54.97 28.00
  Z
  M 52.96 28.00
  A 2.96 2.96 0.0 0 0 50.00 25.04
  A 2.96 2.96 0.0 0 0 47.04 28.00
  A 2.96 2.96 0.0 0 0 50.00 30.96
  A 2.96 2.96 0.0 0 0 52.96 28.00
  Z"
/>
<path fill="#69d6f4" d="
  M 33.79 26.33
  Q 35.08 24.61 37.29 25.08
  Q 37.82 25.20 37.58 25.67
  Q 35.65 29.53 39.40 31.65
  Q 39.96 31.96 39.88 32.60
  L 39.59 34.88
  A 0.68 0.46 52.7 0 0 39.60 35.07
  C 40.43 38.63 42.60 38.12 45.52 38.11
  A 0.96 0.96 0.0 0 1 46.37 38.62
  Q 47.12 40.00 48.46 40.82
  A 1.13 1.12 15.8 0 1 49.00 41.78
  L 48.99 46.47
  A 0.46 0.45 -0.0 0 1 48.53 46.92
  L 13.76 47.01
  A 0.75 0.75 0.0 0 1 13.00 46.26
  L 13.01 27.52
  A 0.47 0.47 0.0 0 1 13.48 27.05
  L 32.47 26.99
  A 1.69 1.69 0.0 0 0 33.79 26.33
  Z
  M 35.04 29.53
  A 0.53 0.53 0.0 0 0 34.51 29.00
  L 15.51 29.00
  A 0.53 0.53 0.0 0 0 14.98 29.53
  L 14.98 30.47
  A 0.53 0.53 0.0 0 0 15.51 31.00
  L 34.51 31.00
  A 0.53 0.53 0.0 0 0 35.04 30.47
  L 35.04 29.53
  Z
  M 35.00 33.49
  A 0.49 0.49 0.0 0 0 34.51 33.00
  L 15.45 33.00
  A 0.49 0.49 0.0 0 0 14.96 33.49
  L 14.96 34.51
  A 0.49 0.49 0.0 0 0 15.45 35.00
  L 34.51 35.00
  A 0.49 0.49 0.0 0 0 35.00 34.51
  L 35.00 33.49
  Z
  M 17.32 40.73
  A 0.42 0.42 0.0 0 1 17.32 41.33
  L 14.48 44.13
  A 0.42 0.42 0.0 0 0 14.49 44.73
  L 15.27 45.49
  A 0.42 0.42 0.0 0 0 15.85 45.49
  L 20.25 41.34
  A 0.42 0.42 0.0 0 0 20.26 40.73
  L 15.86 36.45
  A 0.42 0.42 0.0 0 0 15.26 36.47
  L 14.48 37.31
  A 0.42 0.42 0.0 0 0 14.49 37.89
  L 17.32 40.73
  Z
  M 28.9703 43.9142
  A 0.79 0.79 0.0 0 0 28.1831 43.1214
  L 21.6431 43.0986
  A 0.79 0.79 0.0 0 0 20.8503 43.8858
  L 20.8497 44.0658
  A 0.79 0.79 0.0 0 0 21.6369 44.8586
  L 28.1769 44.8814
  A 0.79 0.79 0.0 0 0 28.9697 44.0942
  L 28.9703 43.9142
  Z"
/>
<path fill="#000000" d="
  M 52.96 28.00
  A 2.96 2.96 0.0 0 1 50.00 30.96
  A 2.96 2.96 0.0 0 1 47.04 28.00
  A 2.96 2.96 0.0 0 1 50.00 25.04
  A 2.96 2.96 0.0 0 1 52.96 28.00
  Z
  M 50.98 28.00
  A 0.99 0.99 0.0 0 0 49.99 27.01
  A 0.99 0.99 0.0 0 0 49.00 28.00
  A 0.99 0.99 0.0 0 0 49.99 28.99
  A 0.99 0.99 0.0 0 0 50.98 28.00
  Z"
/>
<path fill="#ccd1d9" d="
  M 11.85 48.55
  Q 12.96 49.22 14.51 49.17
  Q 21.87 48.92 29.26 49.04
  Q 29.94 49.05 29.43 49.50
  Q 26.88 51.76 29.24 54.40
  Q 29.77 54.99 28.98 54.99
  L 12.00 55.01
  A 3.01 3.00 0.1 0 1 8.99 52.00
  L 9.07 27.86
  A 0.72 0.72 0.0 0 1 9.76 27.14
  L 10.16 27.13
  Q 10.97 27.09 10.97 27.91
  L 11.00 47.04
  Q 11.00 48.03 11.85 48.55
  Z"
/>
<rect fill="#000000" x="14.98" y="29.00" width="20.06" height="2.00" rx="0.53"/>
<rect fill="#000000" x="14.96" y="33.00" width="20.04" height="2.00" rx="0.49"/>
<path fill="#000000" d="
  M 17.32 40.73
  L 14.49 37.89
  A 0.42 0.42 0.0 0 1 14.48 37.31
  L 15.26 36.47
  A 0.42 0.42 0.0 0 1 15.86 36.45
  L 20.26 40.73
  A 0.42 0.42 0.0 0 1 20.25 41.34
  L 15.85 45.49
  A 0.42 0.42 0.0 0 1 15.27 45.49
  L 14.49 44.73
  A 0.42 0.42 0.0 0 1 14.48 44.13
  L 17.32 41.33
  A 0.42 0.42 0.0 0 0 17.32 40.73
  Z"
/>
<path fill="#ccd1d9" d="
  M 33.39 53.66
  Q 34.55 51.61 33.07 49.97
  Q 32.25 49.07 33.46 49.07
  L 48.97 49.04
  A 2.03 2.03 0.0 0 0 51.00 47.03
  L 51.04 41.79
  A 1.34 1.34 0.0 0 1 51.48 40.82
  L 52.06 40.29
  Q 52.94 39.51 52.94 40.68
  L 53.01 52.25
  A 2.76 2.75 -0.2 0 1 50.25 55.02
  L 32.72 54.96
  A 0.35 0.35 0.0 0 1 32.55 54.30
  L 32.99 54.06
  A 1.11 1.01 -2.6 0 0 33.39 53.66
  Z"
/>
<rect fill="#000000" x="-4.06" y="-0.88" transform="translate(24.91,43.99) rotate(0.2)" width="8.12" height="1.76" rx="0.79"/>
<circle fill="#ff826e" cx="31.01" cy="52.01" r="1.01"/>
<rect fill="#aab2bd" x="25.98" y="57.03" width="10.00" height="3.90" rx="1.06"/>
</svg>
